<svg width="200" height="200" viewBox="0 0 200 200" fill="none" xmlns="http://www.w3.org/2000/svg">
<rect x="98.5" y="45.5" width="7" height="152" rx="3.5" fill="white" stroke="#D1704A" stroke-width="5"/>
<rect x="-0.244571" y="3.30622" width="7" height="121.23" rx="3.5" transform="matrix(0.69762 0.716468 -0.795449 0.606021 102.965 7.93019)" fill="white" stroke="#D1704A" stroke-width="5"/>
<rect x="-3.73835" y="0.203531" width="7" height="120.936" rx="3.5" transform="matrix(-0.711636 0.702548 -0.783703 -0.621136 193.759 86.2953)" fill="white" stroke="#D1704A" stroke-width="5"/>
<path d="M141 2.5C142.933 2.5 144.5 4.067 144.5 6V163C144.5 164.933 142.933 166.5 141 166.5C139.067 166.5 137.5 164.933 137.5 163V6C137.5 4.067 139.067 2.5 141 2.5Z" fill="white" stroke="#D1704A" stroke-width="5"/>
<path d="M65 65.5C66.933 65.5 68.5 67.067 68.5 69V154C68.5 155.933 66.933 157.5 65 157.5C63.067 157.5 61.5 155.933 61.5 154V69C61.5 67.067 63.067 65.5 65 65.5Z" fill="white" stroke="#D1704A" stroke-width="5"/>
<path d="M181 99.5C182.933 99.5 184.5 101.067 184.5 103V124C184.5 125.933 182.933 127.5 181 127.5C179.067 127.5 177.5 125.933 177.5 124V103C177.5 101.067 179.067 99.5 181 99.5Z" fill="white" stroke="#D1704A" stroke-width="5"/>
<path d="M25 99.5C26.933 99.5 28.5 101.067 28.5 103V124C28.5 125.933 26.933 127.5 25 127.5C23.067 127.5 21.5 125.933 21.5 124V103C21.5 101.067 23.067 99.5 25 99.5Z" fill="white" stroke="#D1704A" stroke-width="5"/>
<rect x="96.0449" y="16.0143" width="6.1991" height="1.97689" transform="rotate(-36.203 96.0449 16.0143)" fill="white"/>
</svg>
