<svg width="200" height="200" viewBox="0 0 200 200" fill="none" xmlns="http://www.w3.org/2000/svg">
<rect x="96" y="43" width="12" height="157" rx="6" fill="#D1704A"/>
<rect width="12" height="126.23" rx="6" transform="matrix(0.69762 0.716468 -0.795449 0.606021 100.409 6.45238)" fill="#D1704A"/>
<rect width="12" height="125.936" rx="6" transform="matrix(-0.711636 0.702548 -0.783703 -0.621136 199.998 83.339)" fill="#D1704A"/>
<path d="M135 6C135 2.68629 137.686 0 141 0V0C144.314 0 147 2.68629 147 6V163C147 166.314 144.314 169 141 169V169C137.686 169 135 166.314 135 163V6Z" fill="#D1704A"/>
<path d="M59 69C59 65.6863 61.6863 63 65 63V63C68.3137 63 71 65.6863 71 69V154C71 157.314 68.3137 160 65 160V160C61.6863 160 59 157.314 59 154V69Z" fill="#D1704A"/>
<path d="M175 103C175 99.6863 177.686 97 181 97V97C184.314 97 187 99.6863 187 103V124C187 127.314 184.314 130 181 130V130C177.686 130 175 127.314 175 124V103Z" fill="#D1704A"/>
<path d="M19 103C19 99.6863 21.6863 97 25 97V97C28.3137 97 31 99.6863 31 103V124C31 127.314 28.3137 130 25 130V130C21.6863 130 19 127.314 19 124V103Z" fill="#D1704A"/>
</svg>
