<svg width="40" height="40" viewBox="0 0 40 40" fill="none" xmlns="http://www.w3.org/2000/svg">
<rect x="0.5" y="0.5" width="39" height="39" rx="19.5" stroke="#DCDCDC"/>
<path d="M23.634 27.1668C22.8807 27.1668 22.0873 26.9868 21.2673 26.6402C20.4673 26.3002 19.6607 25.8335 18.874 25.2668C18.094 24.6935 17.3407 24.0535 16.6273 23.3535C15.9207 22.6402 15.2807 21.8868 14.714 21.1135C14.1407 20.3135 13.6807 19.5135 13.354 18.7402C13.0073 17.9135 12.834 17.1135 12.834 16.3602C12.834 15.8402 12.9273 15.3468 13.1073 14.8868C13.294 14.4135 13.594 13.9735 14.0007 13.5935C14.514 13.0868 15.1007 12.8335 15.7273 12.8335C15.9873 12.8335 16.254 12.8935 16.4807 13.0002C16.7407 13.1202 16.9607 13.3002 17.1207 13.5402L18.6673 15.7202C18.8073 15.9135 18.914 16.1002 18.9873 16.2868C19.074 16.4868 19.1207 16.6868 19.1207 16.8802C19.1207 17.1335 19.0473 17.3802 18.9073 17.6135C18.8073 17.7935 18.654 17.9868 18.4607 18.1802L18.0073 18.6535C18.014 18.6735 18.0207 18.6868 18.0273 18.7002C18.1073 18.8402 18.2673 19.0802 18.574 19.4402C18.9007 19.8135 19.2073 20.1535 19.514 20.4668C19.9073 20.8535 20.234 21.1602 20.5407 21.4135C20.9207 21.7335 21.1673 21.8935 21.314 21.9668L21.3007 22.0002L21.7873 21.5202C21.994 21.3135 22.194 21.1602 22.3873 21.0602C22.754 20.8335 23.2207 20.7935 23.6873 20.9868C23.8607 21.0602 24.0473 21.1602 24.2473 21.3002L26.4607 22.8735C26.7073 23.0402 26.8873 23.2535 26.994 23.5068C27.094 23.7602 27.1407 23.9935 27.1407 24.2268C27.1407 24.5468 27.0673 24.8668 26.9273 25.1668C26.7873 25.4668 26.614 25.7268 26.394 25.9668C26.014 26.3868 25.6007 26.6868 25.1207 26.8802C24.6607 27.0668 24.1607 27.1668 23.634 27.1668ZM15.7273 13.8335C15.3607 13.8335 15.0207 13.9935 14.694 14.3135C14.3873 14.6002 14.174 14.9135 14.0407 15.2535C13.9007 15.6002 13.834 15.9668 13.834 16.3602C13.834 16.9802 13.9807 17.6535 14.274 18.3468C14.574 19.0535 14.994 19.7868 15.5273 20.5202C16.0607 21.2535 16.6673 21.9668 17.334 22.6402C18.0007 23.3002 18.7207 23.9135 19.4607 24.4535C20.1807 24.9802 20.9207 25.4068 21.654 25.7135C22.794 26.2002 23.8607 26.3135 24.7407 25.9468C25.0807 25.8068 25.3807 25.5935 25.654 25.2868C25.8073 25.1202 25.9273 24.9402 26.0273 24.7268C26.1073 24.5602 26.1473 24.3868 26.1473 24.2135C26.1473 24.1068 26.1273 24.0002 26.074 23.8802C26.054 23.8402 26.014 23.7668 25.8873 23.6802L23.674 22.1068C23.5407 22.0135 23.4207 21.9468 23.3073 21.9002C23.1607 21.8402 23.1007 21.7802 22.874 21.9202C22.7407 21.9868 22.6207 22.0868 22.4873 22.2202L21.9807 22.7202C21.7207 22.9735 21.3207 23.0335 21.014 22.9202L20.834 22.8402C20.5607 22.6935 20.2407 22.4668 19.8873 22.1668C19.5673 21.8935 19.2207 21.5735 18.8007 21.1602C18.474 20.8268 18.1473 20.4735 17.8073 20.0802C17.494 19.7135 17.2673 19.4002 17.1273 19.1402L17.0473 18.9402C17.0073 18.7868 16.994 18.7002 16.994 18.6068C16.994 18.3668 17.0807 18.1535 17.2473 17.9868L17.7473 17.4668C17.8807 17.3335 17.9807 17.2068 18.0473 17.0935C18.1007 17.0068 18.1207 16.9335 18.1207 16.8668C18.1207 16.8135 18.1007 16.7335 18.0673 16.6535C18.0207 16.5468 17.9473 16.4268 17.854 16.3002L16.3073 14.1135C16.2407 14.0202 16.1607 13.9535 16.0607 13.9068C15.954 13.8602 15.8407 13.8335 15.7273 13.8335ZM21.3007 22.0068L21.194 22.4602L21.374 21.9935C21.3407 21.9868 21.314 21.9935 21.3007 22.0068Z" fill="black"/>
</svg>
